<svg xmlns="http://www.w3.org/2000/svg" width="670" height="482" fill="none"><path fill="#fff" fill-rule="evenodd" d="M12.638 123.182c-2.635-4.894-4.149-10.159-4.167-16.174a32.984 32.984 0 0 1 5.344-18.818 32.668 32.668 0 0 1 12.528-12.246c4.857-2.805 10.466-4.305 15.994-4.454 11.053-.296 21.678-2.084 31.82-6.2 6.394-2.388 12.41-5.427 18.238-8.792 5.83-3.365 11.469-7.055 16.733-11.4 7.326-5.761 13.774-13.041 19.16-21.139a33.934 33.934 0 0 1 1.704-3.398c9.313-16.243 30.271-21.818 46.331-12.048 4.874 2.833 9.002 6.966 11.923 11.695 5.84 9.46 12.751 17.809 21.427 24.585 5.291 4.376 10.952 8.1 16.801 11.5 5.849 3.4 11.883 6.475 18.291 8.9 9.844 3.99 20.803 6.03 31.859 6.393 5.528.182 10.821 1.526 16.02 4.55 12.651 7.02 18.932 21.12 16.903 34.649a34.687 34.687 0 0 1-3.924 12.985c-5.214 9.755-8.928 19.893-10.394 30.786-1.103 6.762-1.457 13.525-1.437 20.291.02 6.765.414 13.531 1.559 20.3 1.347 9.277 4.44 18.559 8.763 27.33a34.212 34.212 0 0 1 2.09 3.198c9.411 16.299 3.852 37.328-12.527 46.35-4.857 2.804-10.467 4.304-15.994 4.453-11.053.296-21.678 2.085-31.82 6.201-6.394 2.387-12.41 5.426-18.239 8.791-5.828 3.365-11.468 7.056-16.732 11.399-8.314 6.539-15.497 15.033-21.281 24.457-2.892 4.712-6.672 8.633-11.853 11.625-10.72 6.48-23.68 6.061-33.897.177a35.396 35.396 0 0 1-1.024-.598c-4.874-2.834-9.002-6.967-11.923-11.696-5.84-9.459-12.751-17.808-21.427-24.585-5.29-4.375-10.952-8.1-16.801-11.5-5.85-3.4-11.883-6.475-18.291-8.9-8.674-3.516-18.215-5.518-27.924-6.192a33.736 33.736 0 0 1-3.794.202c-18.723-.056-34.122-15.511-33.804-34.302-.017-5.638 1.464-11.271 4.07-16.149 5.214-9.756 8.928-19.893 10.394-30.786 1.104-6.763 1.458-13.526 1.438-20.291-.02-6.766-.415-13.531-1.56-20.3-1.529-10.528-5.305-21.062-10.577-30.849Zm57.012-3.432a19.726 19.726 0 0 1 7.361-7.509l70.26-40.565a19.731 19.731 0 0 1 10.184-2.62 20.673 20.673 0 0 1 10.267 2.954l71.931 43.459a21.616 21.616 0 0 1 7.61 7.747 21.617 21.617 0 0 1 2.904 10.465l1.671 84.023a20.67 20.67 0 0 1-2.575 10.369 19.736 19.736 0 0 1-7.361 7.509l-70.26 40.564a19.728 19.728 0 0 1-10.183 2.621 20.684 20.684 0 0 1-10.268-2.954l-71.93-43.459a21.639 21.639 0 0 1-7.611-7.747 21.628 21.628 0 0 1-2.904-10.465l-1.671-84.023a20.674 20.674 0 0 1 2.575-10.369Z" clip-rule="evenodd"/><path fill="#fff" d="M668.863 247.179c-.39 1.517-.39 3.034-.78 4.551 0 .757-.389 1.138-.389 1.895-.39.758-.39 1.138-.78 1.896-.78 1.517-1.172 3.034-2.341 4.171-9.755 16.305-31.607 21.992-48.386 12.133-5.073-3.034-9.365-7.205-12.096-11.754-5.853-9.48-13.267-17.821-22.241-24.646-5.463-4.171-11.316-8.342-17.559-11.754-6.243-3.413-12.486-6.446-19.121-9.101l-10.535-3.413c-.779 3.413-1.561 6.826-2.341 10.237-1.171 6.826-1.561 13.65-1.561 20.476 0 6.826.39 13.65 1.561 20.854 1.562 10.997 5.464 21.612 10.927 31.092 2.731 4.93 4.292 10.237 4.292 16.305.39 18.958-15.608 34.504-35.119 34.504-19.51 0-35.508-15.545-35.118-34.504 0-5.688 1.561-11.375 4.292-16.305 5.463-9.858 9.365-20.097 10.926-31.092 1.171-6.825 1.561-13.65 1.561-20.854 0-7.205-.39-13.65-1.561-20.476-.39-3.413-1.171-6.825-2.341-10.237-3.512.758-7.024 1.896-10.145 3.413-6.633 2.654-12.877 5.688-19.12 9.101-6.243 3.412-12.096 7.204-17.559 11.754-8.976 6.825-16.388 15.545-22.242 25.025-3.122 4.549-7.024 8.721-12.096 11.754-16.779 9.479-38.63 4.17-48.385-12.133-9.755-16.305-3.902-37.538 13.267-47.017 5.463-3.034 10.927-4.171 16.388-4.55 11.316-.379 22.633-2.275 33.168-6.445 6.633-2.654 12.877-5.688 19.12-9.101 6.243-3.412 12.096-7.204 17.559-11.754 2.731-2.274 5.464-4.549 8.194-6.825-2.341-2.654-5.073-4.93-8.194-7.205-5.463-4.17-11.316-8.341-17.559-11.754-6.243-3.413-12.486-6.445-19.12-9.1-10.535-4.171-21.852-6.067-33.168-6.446-5.463 0-11.316-1.516-16.388-4.549-14.828-8.341-21.461-25.784-15.998-40.95.78-1.896 1.561-4.171 2.731-6.067.39-.758.78-1.517 1.171-1.896 10.145-14.788 31.217-19.716 47.215-10.617 5.073 3.034 9.365 7.204 12.096 11.754 5.853 9.48 13.267 17.82 22.241 25.025 5.463 4.17 11.316 8.341 17.559 11.754 6.243 3.413 12.486 6.445 19.121 9.1 3.512 1.138 7.024 2.275 10.145 3.413l2.341-10.237c1.171-6.826 1.561-13.65 1.561-20.854 0-7.205-.39-13.65-1.561-20.855-1.561-10.996-5.463-21.612-10.927-31.091-2.73-4.93-4.292-10.237-4.292-15.925-.389-18.958 15.609-34.504 35.119-34.504 19.51 0 35.509 15.546 35.118 34.504 0 5.688-1.561 11.376-4.291 15.925-5.464 9.858-9.366 20.097-10.927 31.091-1.171 6.826-1.561 13.65-1.561 20.855 0 6.825.39 13.65 1.561 20.854.39 3.413 1.171 6.826 2.341 10.618 3.512-.758 7.024-1.896 10.535-3.413 6.633-2.654 12.877-5.688 19.12-9.101 6.243-3.413 12.096-7.583 17.56-11.754 8.975-6.825 16.388-15.167 22.241-24.646 2.731-4.55 7.024-8.721 12.096-11.754 16.779-9.48 38.63-4.17 48.385 12.133 9.755 16.305 3.902 37.538-13.267 47.017-5.073 3.034-10.926 4.171-16.388 4.55-11.316.379-22.633 2.274-33.167 6.445-6.633 2.654-12.878 5.687-19.121 9.1-6.243 3.413-12.096 7.205-17.559 11.754-2.731 2.275-5.463 4.55-8.194 7.205 2.731 2.654 5.073 4.93 8.194 7.204 5.463 4.171 11.316 8.342 17.559 11.754 6.243 3.413 12.486 6.446 19.121 9.101 10.534 4.17 21.851 6.066 33.167 6.445 5.853 0 11.316 1.517 16.388 4.55 12.876 6.067 19.509 20.096 17.558 33.367h-.001Z"/><g fill="#fff" clip-path="url(#a)"><path d="M251.664 393.047h6.717v26.869h-6.717v6.717h-6.717v6.717h-6.718v-13.434h6.718v-20.152h-6.718v-6.717h-26.868v20.151h-6.718v20.152h-6.717v6.717h20.152v6.717h6.717v6.718h6.717v6.717h6.717v6.717h6.718v6.717h6.717v6.718h-20.152v-6.718h-6.717v-6.717h-6.717v-6.717h-6.717v-6.717h-6.718v-6.718h-6.717v13.435h-6.717v13.434h6.717v6.718h-26.869v-6.718h6.718v-13.434h6.717V433.35h6.717v-20.152h6.717v-20.151h-6.717v-6.717h60.455v6.717Zm-13.435 40.303v6.717h-20.151v-6.717h20.151Zm107.476-47.02v13.434h-6.717v-6.717h-26.869v20.151h-6.717v26.869h-6.718v20.152h-6.717v13.434h6.717v6.718h-26.868v-6.718h6.717v-13.434h6.717v-20.152h6.717v-26.869h6.717v-20.151h-20.151v6.717h-6.717V386.33h73.889Zm-80.607 20.151v-6.717h6.718v6.717h-6.718Zm67.172 0v-6.717h6.718v6.717h-6.718Zm47.126-20.151v6.717h-6.717v20.151h-6.717v20.152h-6.718v26.869h-6.717v13.434h6.717v6.718h-26.869v-6.718h6.718v-13.434h6.717V433.35h6.717v-20.152h6.717v-20.151h-6.717v-6.717h26.869Zm80.685 0v20.151h-6.717v-6.717h-6.717v-6.717h-33.586v20.151h-6.717v20.152h20.151v-6.717h6.717v20.151h-6.717v-6.717h-26.869v20.152h-6.717v13.434h6.717v6.718h-26.869v-6.718h6.718v-13.434h6.717V433.35h6.717v-20.152h6.717v-20.151h-6.717v-6.717h67.172Zm40.356 0v6.717h-6.717v20.151h-6.717v20.152h-6.718v26.869h-6.717v13.434h6.717v6.718h-26.868v-6.718h6.717v-13.434h6.717V433.35h6.717v-20.152h6.717v-20.151h-6.717v-6.717h26.869Zm73.942 0h6.717v33.586h-6.717v-13.435h-6.717v-6.717h-6.718v-6.717h-26.868v-6.717h33.586v6.717h6.717v-6.717Zm-53.738 6.717h13.435v6.717h-6.718v6.717h-6.717v13.435h-6.717v33.586h6.717v13.434h6.717v6.717h-13.434v-6.717h-6.717v-13.434h-6.717v-33.586h6.717v-13.435h6.717v-6.717h6.717v-6.717Zm53.738 60.455v6.717h-6.717v-6.717h6.717Zm-6.717 6.717v6.717h-6.718v-6.717h6.718Zm-6.718 13.434H547.51v-6.717h13.434v6.717Zm-33.586 6.718v-6.718h20.152v6.718h-20.152Zm141.114-94.041v20.151h-6.717v-6.717h-6.717v-6.717h-33.586v20.151h-6.717v20.152h20.151v-6.717h6.718v20.151h-6.718v-6.717h-26.869v13.435H601.3v20.151h40.304v-6.717h6.717v13.435h-67.172v-6.718h6.717v-20.151h6.717V433.35h6.717v-20.152h6.717v-20.151H601.3v-6.717h67.172Zm-13.434 73.889v6.717h-6.717v-6.717h6.717Z"/><path stroke="#fff" stroke-width="2.46" d="M181.459 382.023c4.365 0 7.148 1.713 8.1 2.35.409.273.853.552 1.303.837.44.278.89.566 1.272.837.351.249.762.565 1.034.911.126.161.356.491.384.943a1.44 1.44 0 0 1-.649 1.291c-.047.032-.8.78-1.942.648-.501-.058-1.021-.26-1.583-.565-.571-.309-1.255-.765-2.093-1.4-.244-.185-.814-.456-1.607-.681-.765-.218-1.604-.354-2.312-.354-2.089 0-4.137.569-6.009 2.083-4.532 3.753-12.077 12.847-16.927 19.881l-.011.015c-12.64 17.725-26.462 38.833-38.246 58.151 2.694-.52 5.786-1.602 8.917-3.183 4.322-2.291 9.736-6.495 13.07-9.654.576-.578 1.192-1.032 1.865-1.189a2.032 2.032 0 0 1 1.787.404l.188.17.14.161c.298.386.387.849.326 1.281-.06.421-.255.792-.437 1.077-.37.578-.987 1.25-1.725 1.996l-.016.017-.017.014c-3.004 2.821-7.97 6.973-13.406 9.831-4.429 2.345-9.458 3.665-13.573 3.963-2.889 3.069-5.179 4.68-8.587 5.369l-.001-.001c-1.603.335-2.887.428-3.902.301-1.021-.127-1.878-.493-2.447-1.168-.575-.683-.696-1.492-.632-2.171a4.553 4.553 0 0 1 .564-1.739l.888-1.685c-3.933-.713-9.19-2.36-12.353-3.676v-.001c-4.355-1.802-9.12-4.538-12.114-7.069-8.475 6.009-27.01 17.892-46.66 19.371v.001c-8.388.653-16.202-.312-21.975-3.061-5.825-2.775-9.655-7.432-9.655-14.019 0-8.119 5.982-13.815 12.154-14.296l.02-.001h.022c2.654-.117 4.942.519 6.589 1.89 1.667 1.388 2.536 3.414 2.536 5.766 0 3.858-2.376 6.109-5.385 8.281l-.008.007c-2.15 1.521-3.296 2.69-3.296 4.352 0 1.497 1.157 3.214 4.431 4.477 3.233 1.247 8.218 1.894 14.997 1.368l.76-.074c15.346-1.611 30.172-9.738 41.457-17.47-4.574-4.308-10.91-12.39-10.91-24.08 0-13.604 10.591-24.172 26.484-23.725 6.062.116 11.192 2.671 15.108 5.905 3.264 2.696 5.731 5.902 7.243 8.676 2.786-2.727 6.592-6.227 8.781-8.255l.005-.005c11.221-10.274 21.073-18.945 31.819-24.812 8.117-4.533 17.659-8.291 26.234-8.291Zm-74.614 54.837c-2.49 2.303-4.98 4.608-7.418 6.858l-.006.004-.006.006c-5.305 4.767-9.893 8.805-14.262 12.452 2.367 2.191 6.242 4.633 9.716 6.298 3.105 1.371 8.89 3.271 12.608 3.857.859-1.462 2.031-3.326 3.111-5.03 1.272-2.01 2.395-3.768 2.812-4.5.625-1.286 1.085-3.538 1.319-6.328.233-2.764.234-5.908.027-8.848l-.083-.938c-.357-3.746-.952-6.85-1.77-9.421l-6.048 5.59Zm-14.61-22.383c-5.107 0-9.001 2.217-11.7 5.615-2.722 3.427-4.247 8.09-4.45 12.918v.006c-.376 7.978 2.91 15.448 5.937 19.417A446.554 446.554 0 0 0 96.5 439.971l.007-.007c2.53-2.239 5.011-4.533 7.503-6.837a507.48 507.48 0 0 1 6.806-6.216c-4.143-7.258-10.604-12.434-18.58-12.434Zm77.637-26.312c-3.754 1.274-8.015 3.179-12.171 5.58-9.84 5.715-19.932 14.21-28.175 21.901l-.007.006c-4.454 4.094-8.521 7.993-12.767 12.079.957 2.829 2.014 6.691 2.475 12.261l.091 1.243.001.011h-.001a58.216 58.216 0 0 1-.053 7.016c6.065-9.191 16.574-24.382 22.859-32.551 10.143-13.446 19.422-22.1 27.748-27.546Z"/></g><defs><clipPath id="a"><path fill="#fff" d="M1 380.625h668v100.932H1z"/></clipPath></defs></svg>