<svg xmlns="http://www.w3.org/2000/svg" width="668" height="483" fill="none"><path fill="#000" fill-rule="evenodd" d="M11.914 123.226c-2.633-4.891-4.145-10.151-4.163-16.16a32.956 32.956 0 0 1 5.34-18.802 32.64 32.64 0 0 1 12.516-12.236c4.853-2.802 10.458-4.3 15.98-4.45 11.044-.296 21.66-2.083 31.793-6.196 6.389-2.385 12.4-5.42 18.223-8.783 5.824-3.363 11.459-7.05 16.718-11.39 7.32-5.757 13.763-13.03 19.144-21.121a33.882 33.882 0 0 1 1.702-3.396c9.305-16.229 30.245-21.799 46.292-12.038 4.869 2.831 8.994 6.96 11.913 11.686 5.835 9.451 12.74 17.793 21.409 24.564 5.285 4.372 10.942 8.092 16.786 11.49 5.844 3.397 11.873 6.47 18.276 8.893 9.835 3.986 20.785 6.024 31.831 6.386 5.523.183 10.811 1.526 16.007 4.546 12.639 7.015 18.915 21.102 16.888 34.62a34.648 34.648 0 0 1-3.921 12.974c-5.209 9.747-8.92 19.876-10.385 30.76-1.102 6.756-1.456 13.513-1.436 20.273.02 6.76.414 13.519 1.558 20.283 1.346 9.269 4.436 18.543 8.755 27.307a34.342 34.342 0 0 1 2.089 3.194c9.402 16.285 3.848 37.297-12.516 46.311-4.853 2.801-10.458 4.3-15.981 4.449-11.044.296-21.66 2.083-31.793 6.196-6.388 2.385-12.399 5.421-18.223 8.784-5.824 3.362-11.458 7.049-16.718 11.389-8.306 6.533-15.484 15.02-21.262 24.436-2.89 4.708-6.666 8.625-11.844 11.615-10.711 6.474-23.659 6.055-33.867.177a35.348 35.348 0 0 1-1.023-.598c-4.87-2.831-8.995-6.961-11.913-11.686-5.835-9.451-12.74-17.793-21.409-24.564-5.286-4.371-10.943-8.092-16.787-11.49-5.844-3.397-11.873-6.469-18.275-8.893-8.667-3.512-18.2-5.512-27.9-6.186a33.92 33.92 0 0 1-3.79.202c-18.708-.057-34.094-15.498-33.776-34.273-.017-5.633 1.463-11.261 4.067-16.135 5.21-9.747 8.92-19.876 10.385-30.76 1.102-6.756 1.456-13.514 1.436-20.273-.02-6.76-.414-13.52-1.557-20.283-1.529-10.519-5.302-21.044-10.569-30.822Zm56.964-3.429a19.709 19.709 0 0 1 7.354-7.503l70.2-40.53a19.714 19.714 0 0 1 10.175-2.618 20.653 20.653 0 0 1 10.258 2.951l71.869 43.422a21.607 21.607 0 0 1 7.604 7.741 21.603 21.603 0 0 1 2.902 10.455l1.67 83.952c.056 3.652-.831 7.224-2.574 10.36a19.713 19.713 0 0 1-7.354 7.502l-70.2 40.53a19.714 19.714 0 0 1-10.175 2.618 20.658 20.658 0 0 1-10.258-2.951l-71.87-43.422a21.613 21.613 0 0 1-7.604-7.741 21.609 21.609 0 0 1-2.901-10.455l-1.67-83.952a20.65 20.65 0 0 1 2.574-10.359Z" clip-rule="evenodd"/><path fill="#000" d="M667.577 247.116c-.389 1.516-.389 3.032-.779 4.547 0 .757-.389 1.137-.389 1.894-.39.757-.39 1.137-.78 1.895-.779 1.515-1.17 3.031-2.339 4.167-9.746 16.291-31.579 21.973-48.344 12.122-5.069-3.031-9.357-7.198-12.085-11.744-5.848-9.471-13.256-17.805-22.222-24.625-5.459-4.167-11.307-8.334-17.545-11.744-6.237-3.41-12.475-6.44-19.104-9.093l-10.526-3.409-2.338 10.228c-1.171 6.82-1.56 13.638-1.56 20.458 0 6.82.389 13.638 1.56 20.836 1.559 10.987 5.458 21.594 10.917 31.065 2.728 4.926 4.288 10.228 4.288 16.291.389 18.942-15.595 34.475-35.089 34.475-19.493 0-35.478-15.532-35.088-34.475 0-5.683 1.56-11.365 4.288-16.291 5.459-9.85 9.357-20.079 10.917-31.065 1.17-6.82 1.56-13.638 1.56-20.836 0-7.199-.39-13.638-1.56-20.458-.389-3.41-1.17-6.82-2.339-10.228-3.509.757-7.018 1.894-10.136 3.409-6.627 2.652-12.866 5.683-19.104 9.093-6.238 3.41-12.086 7.199-17.544 11.744-8.968 6.82-16.374 15.532-22.222 25.004-3.12 4.545-7.019 8.714-12.086 11.744-16.765 9.471-38.597 4.167-48.344-12.123-9.747-16.291-3.899-37.506 13.256-46.977 5.458-3.031 10.917-4.167 16.374-4.545 11.306-.379 22.613-2.273 33.139-6.44 6.627-2.652 12.866-5.683 19.104-9.093 6.238-3.41 12.086-7.198 17.544-11.744 2.729-2.273 5.459-4.545 8.187-6.82-2.339-2.651-5.069-4.925-8.187-7.198-5.458-4.167-11.306-8.334-17.544-11.744-6.238-3.41-12.475-6.44-19.104-9.093-10.526-4.167-21.833-6.061-33.139-6.439-5.459 0-11.307-1.516-16.374-4.546-14.816-8.334-21.443-25.762-15.985-40.915.78-1.894 1.56-4.167 2.729-6.061.39-.758.779-1.516 1.17-1.895 10.137-14.775 31.19-19.7 47.175-10.608 5.069 3.031 9.357 7.198 12.085 11.744 5.848 9.471 13.256 17.805 22.222 25.003 5.459 4.167 11.307 8.334 17.545 11.744 6.237 3.41 12.475 6.44 19.104 9.093 3.509 1.137 7.018 2.273 10.136 3.41l2.339-10.228c1.17-6.82 1.56-13.638 1.56-20.837 0-7.198-.39-13.638-1.56-20.836-1.56-10.987-5.459-21.594-10.917-31.065-2.729-4.926-4.288-10.228-4.288-15.911-.39-18.942 15.594-34.475 35.088-34.475s35.478 15.532 35.088 34.475c0 5.683-1.559 11.365-4.288 15.91-5.458 9.85-9.357 20.08-10.917 31.066-1.17 6.82-1.56 13.638-1.56 20.836 0 6.82.39 13.638 1.56 20.837.39 3.41 1.17 6.82 2.339 10.608 3.509-.757 7.018-1.894 10.526-3.41 6.627-2.651 12.866-5.683 19.104-9.093 6.238-3.409 12.086-7.576 17.544-11.743 8.968-6.82 16.374-15.154 22.222-24.626 2.729-4.545 7.019-8.714 12.086-11.743 16.765-9.472 38.597-4.167 48.344 12.122 9.747 16.291 3.899 37.506-13.256 46.977-5.069 3.031-10.917 4.167-16.374 4.546-11.306.378-22.613 2.272-33.139 6.439-6.627 2.652-12.866 5.683-19.104 9.093-6.238 3.41-12.086 7.198-17.544 11.744-2.729 2.273-5.459 4.545-8.187 7.198 2.728 2.652 5.069 4.926 8.187 7.199 5.458 4.167 11.306 8.334 17.544 11.744 6.238 3.41 12.475 6.439 19.104 9.092 10.526 4.167 21.833 6.061 33.139 6.44 5.848 0 11.307 1.516 16.374 4.545 12.865 6.063 19.492 20.08 17.543 33.339h-.001Z"/><g fill="#000" clip-path="url(#a)"><path d="M250.664 392.901h6.717v26.869h-6.717v6.717h-6.717v6.717h-6.717V419.77h6.717v-20.152h-6.717v-6.717h-26.869v20.151h-6.717v20.152h-6.718v6.717h20.152v6.717h6.717v6.718h6.717v6.717h6.718v6.717h6.717v6.717h6.717v6.717h-20.152v-6.717h-6.717v-6.717h-6.717v-6.717h-6.717v-6.717h-6.717v-6.718h-6.718v13.435h-6.717v13.434h6.717v6.717h-26.869v-6.717h6.718v-13.434h6.717v-26.869h6.717v-20.152h6.717v-20.151h-6.717v-6.718h60.455v6.718Zm-13.434 40.303v6.717h-20.152v-6.717h20.152Zm107.475-47.021v13.435h-6.717v-6.717h-26.869v20.151h-6.717v26.869h-6.717v20.152h-6.718v13.434h6.718v6.717h-26.869v-6.717h6.717v-13.434h6.717v-20.152h6.717v-26.869h6.718v-20.151h-20.152v6.717h-6.717v-13.435h73.889Zm-80.607 20.152v-6.717h6.718v6.717h-6.718Zm67.173 0v-6.717h6.717v6.717h-6.717Zm47.125-20.152v6.718h-6.717v20.151h-6.717v20.152h-6.718v26.869h-6.717v13.434h6.717v6.717h-26.868v-6.717h6.717v-13.434h6.717v-26.869h6.717v-20.152h6.717v-20.151h-6.717v-6.718h26.869Zm80.685 0v20.152h-6.717v-6.717h-6.717v-6.717h-33.586v20.151h-6.717v20.152h20.151v-6.717h6.718v20.151h-6.718v-6.717h-26.869v20.152h-6.717v13.434h6.717v6.717h-26.868v-6.717h6.717v-13.434h6.717v-26.869h6.717v-20.152h6.717v-20.151h-6.717v-6.718h67.172Zm40.356 0v6.718h-6.717v20.151h-6.717v20.152h-6.717v26.869h-6.718v13.434h6.718v6.717h-26.869v-6.717h6.717v-13.434h6.717v-26.869h6.717v-20.152h6.718v-20.151h-6.718v-6.718h26.869Zm73.942 0h6.717v33.587h-6.717v-13.435h-6.717v-6.717h-6.717v-6.717h-26.869v-6.718h33.586v6.718h6.717v-6.718Zm-53.738 6.718h13.435v6.717h-6.717v6.717h-6.718v13.435h-6.717v33.586h6.717v13.434h6.718v6.717h-13.435v-6.717h-6.717v-13.434h-6.717V419.77h6.717v-13.435h6.717v-6.717h6.717v-6.717Zm53.738 60.455v6.717h-6.717v-6.717h6.717Zm-6.717 6.717v6.717h-6.717v-6.717h6.717Zm-6.717 13.434H546.51v-6.717h13.435v6.717Zm-33.586 6.717v-6.717h20.151v6.717h-20.151Zm141.114-94.041v20.152h-6.718v-6.717h-6.717v-6.717h-33.586v20.151h-6.717v20.152h20.151v-6.717h6.718v20.151h-6.718v-6.717h-26.868v13.435H600.3v20.151h40.304v-6.717h6.717v13.434h-67.172v-6.717h6.717v-20.151h6.717v-20.152h6.717v-20.152h6.718v-20.151H600.3v-6.718h67.173Zm-13.435 73.89v6.717h-6.717v-6.717h6.717Z"/><path stroke="#000" stroke-width="2.46" d="M180.459 381.877c4.365 0 7.148 1.713 8.1 2.35.409.273.853.552 1.303.837.44.278.89.566 1.272.837.351.249.762.565 1.034.911.126.161.356.491.384.943a1.442 1.442 0 0 1-.649 1.291c-.047.032-.8.78-1.942.648-.501-.058-1.021-.26-1.583-.565-.571-.31-1.255-.765-2.093-1.4-.244-.185-.814-.456-1.606-.681-.766-.218-1.605-.354-2.313-.354-2.089 0-4.137.569-6.009 2.083-4.532 3.753-12.077 12.846-16.927 19.88l-.011.016c-12.64 17.725-26.462 38.833-38.246 58.15 2.694-.519 5.786-1.601 8.917-3.182 4.322-2.291 9.736-6.495 13.07-9.654.576-.578 1.192-1.032 1.865-1.189a2.032 2.032 0 0 1 1.787.404l.188.17.14.16c.298.387.387.85.326 1.282-.06.421-.255.792-.437 1.077-.37.578-.987 1.25-1.724 1.996l-.017.017-.017.014c-3.004 2.821-7.97 6.973-13.406 9.831-4.429 2.345-9.458 3.665-13.573 3.963-2.889 3.069-5.179 4.68-8.587 5.369l-.001-.001c-1.603.335-2.887.428-3.902.301-1.021-.127-1.878-.493-2.447-1.168-.575-.683-.696-1.492-.632-2.171a4.553 4.553 0 0 1 .564-1.739l.888-1.685c-3.933-.713-9.19-2.36-12.353-3.676v-.001c-4.355-1.802-9.12-4.538-12.114-7.069-8.475 6.009-27.01 17.891-46.66 19.371v.001c-8.388.653-16.202-.312-21.975-3.061-5.825-2.775-9.655-7.432-9.655-14.019 0-8.119 5.983-13.816 12.154-14.296l.02-.001.022-.001c2.654-.116 4.942.52 6.589 1.891 1.667 1.388 2.536 3.414 2.536 5.766 0 3.858-2.376 6.109-5.385 8.281l-.008.007c-2.15 1.521-3.296 2.69-3.296 4.352 0 1.497 1.157 3.214 4.431 4.477 3.233 1.247 8.218 1.894 14.997 1.368l.76-.074c15.346-1.611 30.172-9.739 41.457-17.47-4.574-4.308-10.91-12.39-10.91-24.08 0-13.605 10.591-24.172 26.484-23.726 6.062.117 11.192 2.672 15.108 5.906 3.264 2.696 5.731 5.902 7.243 8.676 2.786-2.727 6.592-6.227 8.781-8.255l.005-.005c11.221-10.274 21.073-18.945 31.819-24.812 8.117-4.533 17.659-8.291 26.234-8.291Zm-74.613 54.837c-2.491 2.303-4.981 4.607-7.418 6.858l-.007.004-.006.006c-5.305 4.767-9.893 8.805-14.262 12.452 2.367 2.191 6.242 4.633 9.716 6.298 3.106 1.371 8.89 3.271 12.608 3.857.859-1.462 2.032-3.326 3.111-5.031 1.272-2.009 2.395-3.767 2.812-4.5.625-1.285 1.085-3.537 1.32-6.327.232-2.764.233-5.908.026-8.848l-.083-.938c-.357-3.746-.952-6.85-1.77-9.421l-6.047 5.59Zm-14.61-22.383c-5.108 0-9.002 2.217-11.701 5.615-2.722 3.427-4.247 8.09-4.45 12.918v.006c-.376 7.978 2.91 15.448 5.937 19.417A445.452 445.452 0 0 0 95.5 439.824l.007-.006c2.53-2.239 5.011-4.533 7.503-6.837a507.48 507.48 0 0 1 6.806-6.216c-4.142-7.258-10.604-12.434-18.58-12.434Zm77.636-26.312c-3.754 1.274-8.015 3.179-12.171 5.58-9.84 5.715-19.932 14.21-28.175 21.901l-.007.006c-4.454 4.094-8.521 7.993-12.767 12.079.957 2.829 2.014 6.691 2.475 12.261l.091 1.243.001.011h-.001a58.198 58.198 0 0 1-.053 7.015c6.065-9.19 16.574-24.381 22.859-32.55 10.143-13.446 19.422-22.1 27.748-27.546Z"/></g><defs><clipPath id="a"><path fill="#fff" d="M0 380.479h668v100.932H0z"/></clipPath></defs></svg>