<svg width="46" height="24" viewBox="0 0 46 24" fill="none" xmlns="http://www.w3.org/2000/svg">
<path fill-rule="evenodd" clip-rule="evenodd" d="M0.290715 8.33975C0.107275 7.99899 0.00193459 7.63253 0.00068054 7.21389C-0.0106222 6.74967 0.119096 6.29294 0.372716 5.90396C0.580345 5.54571 0.881848 5.25095 1.2447 5.05148C1.58281 4.85627 1.97331 4.7519 2.35802 4.74145C3.12745 4.72083 3.86706 4.59633 4.57303 4.30978C5.01814 4.14362 5.43693 3.93217 5.84261 3.69787C6.24837 3.46357 6.64096 3.2067 7.00735 2.90434C7.51733 2.50325 7.96621 1.99654 8.34111 1.43284C8.37618 1.35182 8.41576 1.27283 8.45968 1.19625C9.10796 0.0655779 10.5668 -0.322482 11.6848 0.357563C12.024 0.554798 12.3114 0.842464 12.5148 1.17172C12.9213 1.83017 13.4024 2.41135 14.0064 2.88309C14.3746 3.18768 14.7687 3.44685 15.1758 3.68359C15.583 3.92026 16.003 4.13435 16.4491 4.30316C17.1343 4.58086 17.8972 4.72285 18.6668 4.74807C19.0516 4.76082 19.42 4.85439 19.782 5.06479C20.6625 5.55352 21.0998 6.53496 20.9585 7.47675C20.9279 7.79309 20.835 8.10027 20.6854 8.38064C20.3225 9.05971 20.0639 9.7654 19.9619 10.5237C19.8851 10.9944 19.8604 11.4651 19.8618 11.9361C19.8632 12.4071 19.8907 12.878 19.9704 13.3492C20.0641 13.995 20.2794 14.6411 20.5803 15.2517C20.6329 15.3231 20.6815 15.3974 20.7259 15.4742C21.3809 16.6088 20.9939 18.0727 19.8539 18.7007C19.5158 18.8958 19.1253 19.0002 18.7405 19.0106C17.971 19.0312 17.2314 19.1557 16.5255 19.4423C16.0804 19.6085 15.6616 19.82 15.2559 20.0543C14.8501 20.2885 14.4576 20.5454 14.0911 20.8477C13.5125 21.3029 13.0124 21.8942 12.6098 22.5502C12.4085 22.8782 12.1454 23.1511 11.7847 23.3594C11.0384 23.8104 10.1364 23.7812 9.42516 23.3717C9.40118 23.3582 9.37742 23.3444 9.35389 23.3301C9.0146 23.1328 8.72721 22.8451 8.52392 22.5159C8.1174 21.8575 7.63633 21.2763 7.03236 20.8045C6.66409 20.5 6.26997 20.2408 5.86282 20.004C5.45567 19.7674 5.03563 19.5533 4.58961 19.3845C3.98578 19.1398 3.32162 19.0004 2.64583 18.9535C2.55814 18.9631 2.46999 18.9678 2.38178 18.9676C1.0784 18.9636 0.00646315 17.8878 0.0286181 16.5798C0.0274337 16.1873 0.130545 15.7952 0.311964 15.4557C0.674943 14.7766 0.933417 14.0709 1.03548 13.3126C1.11226 12.8419 1.13692 12.3711 1.13553 11.9002C1.13414 11.4292 1.10669 10.9583 1.02705 10.4871C0.920528 9.75425 0.657665 9.02098 0.290715 8.33975ZM4.25937 8.10085C4.37971 7.88346 4.55679 7.7028 4.77172 7.57812L9.66253 4.75441C9.87798 4.63061 10.123 4.56757 10.3714 4.57202C10.6235 4.57674 10.87 4.64764 11.0861 4.77761L16.0932 7.8028C16.3128 7.93458 16.4951 8.12021 16.6229 8.34212C16.7512 8.56376 16.8208 8.81447 16.8251 9.07051L16.9415 14.9194C16.9454 15.1738 16.8836 15.4227 16.7621 15.6412C16.6418 15.8585 16.4647 16.0392 16.2498 16.1639L11.359 18.9876C11.1435 19.1114 10.8985 19.1744 10.6501 19.17C10.398 19.1652 10.1515 19.0943 9.93542 18.9644L4.92827 15.9392C4.70869 15.8074 4.52636 15.6218 4.3985 15.3999C4.27028 15.1782 4.20072 14.9275 4.19639 14.6715L4.08004 8.82256C4.07554 8.57043 4.13738 8.32155 4.25937 8.10085Z" fill="#E0E0E0"/>
<path d="M45.9704 16.9712C45.9433 17.0768 45.9433 17.1824 45.9161 17.288C45.9161 17.3407 45.889 17.3672 45.889 17.4199C45.8619 17.4726 45.8619 17.4991 45.8347 17.5519C45.7804 17.6575 45.7532 17.7631 45.6717 17.8422C44.9927 18.9772 43.4716 19.3731 42.3036 18.6868C41.9505 18.4756 41.6517 18.1853 41.4617 17.8686C41.0542 17.2087 40.5381 16.6281 39.9135 16.153C39.5331 15.8627 39.1257 15.5723 38.6911 15.3348C38.2566 15.0972 37.822 14.8861 37.3601 14.7013L36.6268 14.4638L36.4639 15.1763C36.3823 15.6515 36.3552 16.1265 36.3552 16.6016C36.3552 17.0768 36.3823 17.5518 36.4639 18.0533C36.5725 18.8187 36.8442 19.5577 37.2245 20.2176C37.4146 20.5608 37.5232 20.9301 37.5232 21.3525C37.5503 22.6722 36.4367 23.7544 35.0786 23.7544C33.7205 23.7544 32.6069 22.6723 32.634 21.3525C32.634 20.9566 32.7427 20.5608 32.9328 20.2176C33.3131 19.5313 33.5847 18.8187 33.6934 18.0533C33.7749 17.5781 33.802 17.1031 33.802 16.6016C33.802 16.1001 33.7749 15.6515 33.6934 15.1763C33.6663 14.9388 33.6118 14.7012 33.5304 14.4638C33.2859 14.5165 33.0415 14.5957 32.8242 14.7013C32.3625 14.886 31.9279 15.0972 31.4933 15.3348C31.0587 15.5723 30.6512 15.8363 30.271 16.153C29.6462 16.6281 29.1302 17.2351 28.7228 17.895C28.5054 18.2116 28.2338 18.5021 27.8808 18.7132C26.7127 19.373 25.1917 19.0035 24.5126 17.8686C23.8336 16.7336 24.241 15.2556 25.4362 14.5957C25.8164 14.3845 26.1968 14.3054 26.577 14.2791C27.3646 14.2527 28.1524 14.1207 28.8857 13.8304C29.3474 13.6456 29.7821 13.4345 30.2167 13.1969C30.6513 12.9593 31.0587 12.6954 31.439 12.3787C31.6291 12.2203 31.8193 12.062 32.0094 11.9035C31.8464 11.7188 31.6562 11.5604 31.439 11.4021C31.0587 11.1117 30.6513 10.8214 30.2167 10.5839C29.7821 10.3463 29.3476 10.1352 28.8857 9.95035C28.1524 9.66004 27.3646 9.52808 26.577 9.50175C26.1966 9.50175 25.7892 9.39613 25.4362 9.18503C24.404 8.6044 23.9423 7.3902 24.3225 6.3345C24.3769 6.20254 24.4312 6.04419 24.5126 5.91223C24.5398 5.85942 24.5669 5.80661 24.5942 5.78021C25.3004 4.75084 26.7672 4.40772 27.8808 5.04115C28.234 5.25232 28.5327 5.54263 28.7228 5.85935C29.1302 6.51919 29.6463 7.09982 30.271 7.6013C30.6513 7.89161 31.0587 8.18193 31.4933 8.4195C31.9279 8.65707 32.3625 8.86817 32.8243 9.05301C33.0688 9.13222 33.3132 9.21136 33.5305 9.29058L33.6934 8.578C33.7749 8.10285 33.8021 7.62784 33.8021 7.12629C33.8021 6.62481 33.7749 6.17614 33.6934 5.67466C33.5847 4.9092 33.3131 4.17021 32.9328 3.51037C32.7427 3.16718 32.6341 2.79779 32.6341 2.40186C32.6069 1.08218 33.7205 0 35.0787 0C36.4368 0 37.5504 1.08211 37.5232 2.40186C37.5232 2.79779 37.4146 3.19365 37.2245 3.5103C36.8442 4.19655 36.5726 4.90927 36.4639 5.67466C36.3824 6.1498 36.3552 6.62481 36.3552 7.12629C36.3552 7.60144 36.3824 8.07645 36.4639 8.578C36.4911 8.81557 36.5454 9.05315 36.6269 9.31705C36.8713 9.26431 37.1158 9.1851 37.3602 9.07948C37.8219 8.89479 38.2566 8.68355 38.6912 8.44598C39.1258 8.20847 39.5332 7.91816 39.9135 7.62785C40.5383 7.1527 41.0542 6.57207 41.4617 5.91216C41.6518 5.59551 41.9507 5.30506 42.3037 5.09403C43.4717 4.43412 44.9927 4.80372 45.6718 5.93857C46.3509 7.07355 45.9434 8.55159 44.7483 9.21143C44.3951 9.4226 43.9877 9.50175 43.6075 9.52815C42.8198 9.55449 42.032 9.68644 41.2987 9.97676C40.837 10.1615 40.4023 10.3727 39.9677 10.6103C39.5331 10.8478 39.1257 11.1117 38.7455 11.4285C38.5553 11.5868 38.3651 11.7451 38.1751 11.9299C38.3651 12.1147 38.5282 12.2731 38.7455 12.4315C39.1257 12.7218 39.5331 13.0121 39.9677 13.2497C40.4023 13.4873 40.8369 13.6983 41.2987 13.8831C42.032 14.1734 42.8198 14.3054 43.6075 14.3318C44.0149 14.3318 44.3952 14.4374 44.7483 14.6484C45.6446 15.0709 46.1062 16.0474 45.9704 16.9712Z" fill="#E0E0E0"/>
</svg>
